<svg width="79" height="60" viewBox="0 0 79 60" fill="none" xmlns="http://www.w3.org/2000/svg">
<g clip-path="url(#clip0_571_7547)">
<mask id="mask0_571_7547" style="mask-type:luminance" maskUnits="userSpaceOnUse" x="-1" y="0" width="81" height="60">
<path d="M-0.00854492 0.262451H79.0015V59.52H-0.00854492V0.262451Z" fill="white"/>
</mask>
<g mask="url(#mask0_571_7547)">
<path d="M-0.00854492 0.262451H79.0015V59.52H-0.00854492V0.262451Z" fill="#CC0000"/>
<path d="M-0.00854492 0.262451H79.0015V4.49689H-0.00854492V0.262451Z" fill="#CC0000"/>
<path d="M-0.00854492 4.49683H79.0015V8.73127H-0.00854492V4.49683Z" fill="white"/>
<path d="M-0.00854492 8.73145H79.0015V12.9659H-0.00854492V8.73145Z" fill="#CC0000"/>
<path d="M-0.00854492 12.9658H79.0015V17.1756H-0.00854492V12.9658Z" fill="white"/>
<path d="M-0.00854492 17.188H79.0015V21.4224H-0.00854492V17.188Z" fill="#CC0000"/>
<path d="M-0.00854492 21.4224H79.0015V25.6568H-0.00854492V21.4224Z" fill="white"/>
<path d="M-0.00854492 25.6567H79.0015V29.8912H-0.00854492V25.6567Z" fill="#CC0000"/>
<path d="M-0.00854492 29.8911H79.0015V34.1256H-0.00854492V29.8911Z" fill="white"/>
<path d="M-0.00854492 34.1257H79.0015V38.3602H-0.00854492V34.1257Z" fill="#CC0000"/>
<path d="M-0.00854492 38.3601H79.0015V42.5945H-0.00854492V38.3601Z" fill="white"/>
<path d="M-0.00854492 42.5945H79.0015V46.8042H-0.00854492V42.5945Z" fill="#CC0000"/>
<path d="M-0.00854492 46.8167H79.0015V51.0511H-0.00854492V46.8167Z" fill="white"/>
<path d="M-0.00854492 51.051H79.0015V55.2855H-0.00854492V51.051Z" fill="#CC0000"/>
<path d="M-0.00854492 55.2854H79.0015V59.5198H-0.00854492V55.2854Z" fill="white"/>
<path d="M-0.00854492 0.324219H39.4965V34.1874H-0.00854492V0.324219Z" fill="#000066"/>
<path d="M25.6081 9.37328L26.3488 14.3978L29.1882 10.2004L27.6574 15.0398L32.04 12.472L28.571 16.1756L33.6325 15.7805L28.9043 17.6076L33.6325 19.4347L28.571 19.0397L32.04 22.7433L27.6574 20.1754L29.1759 25.0271L26.3365 20.8174L25.5957 25.8419L24.8674 20.8174L22.0279 25.0148L23.5588 20.1754L19.1762 22.7433L22.6329 19.0397L17.5713 19.4347L22.3119 17.6076L17.5836 15.7805L22.6452 16.1756L19.1762 12.472L23.5588 15.0398L22.0279 10.1881L24.8674 14.3978L25.6081 9.37328ZM21.4971 9.58315C20.1603 8.98845 18.6961 8.73733 17.2375 8.85264C15.779 8.96795 14.3724 9.44603 13.1456 10.2434C11.9189 11.0408 10.911 12.1321 10.2135 13.4183C9.51594 14.7044 9.15098 16.1445 9.15178 17.6076C9.15098 19.0707 9.51594 20.5108 10.2135 21.7969C10.911 23.0831 11.9189 24.1744 13.1456 24.9718C14.3724 25.7692 15.779 26.2473 17.2375 26.3626C18.6961 26.4779 20.1603 26.2268 21.4971 25.6321C20.0212 26.6923 18.2813 27.3247 16.4691 27.4597C14.6569 27.5948 12.8426 27.2272 11.2258 26.3975C9.61088 25.5666 8.25635 24.3065 7.3111 22.7558C6.36585 21.2051 5.86649 19.4237 5.86792 17.6076C5.86852 15.792 6.36963 14.0116 7.31617 12.4622C8.2627 10.9128 9.61804 9.65427 11.2333 8.82498C12.8485 7.99569 14.661 7.6277 16.4717 7.76146C18.2825 7.89521 20.0213 8.52553 21.4971 9.58315Z" fill="#FFCC00"/>
</g>
</g>
<defs>
<clipPath id="clip0_571_7547">
<rect x="-0.00854492" y="0.262451" width="79.01" height="59.2575" rx="10" fill="white"/>
</clipPath>
</defs>
</svg>
