<svg width="79" height="61" viewBox="0 0 79 61" fill="none" xmlns="http://www.w3.org/2000/svg">
<g clip-path="url(#clip0_568_157)">
<path d="M-0.00634766 0.493896H79.0063V30.3213H-0.00634766V0.493896Z" fill="#0038A8"/>
<path d="M-0.0065918 30.3228H79.0061V60.1502H-0.0065918V30.3228Z" fill="#CE1126"/>
<path d="M51.3149 30.3213L-0.00634766 60.1487V0.493896" fill="white"/>
<path d="M3.29008 5.76318L5.05551 7.32912L7.10491 6.18574L6.19132 8.36065L7.91972 9.9763L5.57404 9.77745L4.57403 11.9151L4.04316 9.61589L1.72217 9.31761L3.73452 8.07481L3.29008 5.76318ZM43.2655 27.1768L43.3149 29.5381L45.5372 30.3211L43.3149 31.0916L43.2655 33.453L41.8458 31.5763L39.5989 32.2599L40.9322 30.3211L39.5989 28.3823L41.8458 29.0658L43.2655 27.1768ZM4.58638 48.7271L5.57404 50.8647L7.91972 50.6658L6.20367 52.2815L7.11725 54.4564L5.06786 53.3255L3.29008 54.8665L3.73452 52.5425L1.72217 51.3245L4.05551 51.0263L4.58638 48.7271ZM18.6852 17.7811L17.9198 18.5517L18.3025 24.3929L17.9321 24.4302L17.2284 19.0985L16.5988 19.7199L17.537 24.4923C16.7784 24.6426 16.0567 24.9425 15.4136 25.3747L12.7346 21.348H11.8457L15.1049 25.6108C15.0035 25.6904 14.9047 25.7733 14.8086 25.8594L10.9691 21.4474H9.88269V22.5411L14.2531 26.3938L14.0062 26.7045L9.77158 23.4359V24.3183L13.7839 27.0152C13.3642 27.6615 13.0555 28.3823 12.9074 29.1528L8.17898 28.2083L7.54935 28.8297L12.8457 29.5381C12.821 29.6624 12.8086 29.7991 12.8086 29.9234L7.00614 29.5505L6.2407 30.3211L7.00614 31.0916L12.8086 30.7063L12.8457 31.0916L7.54935 31.8L8.16664 32.4214L12.9074 31.4769C13.0567 32.2406 13.3546 32.9671 13.7839 33.6145L9.77158 36.3114V37.2062L14.0062 33.9376C14.0852 34.0397 14.1676 34.1392 14.2531 34.2359L9.88269 38.0886V39.1823H10.9815L14.8086 34.7828L15.1173 35.0313L11.8457 39.2942H12.7346L15.4136 35.255C16.0432 35.6776 16.7716 35.9883 17.537 36.1374L16.5988 40.9098L17.2161 41.5312L17.9198 36.1996C18.0432 36.2244 18.1667 36.2368 18.3025 36.2368L17.9321 42.078L18.6852 42.8486L19.463 42.078L19.0803 36.2368L19.4506 36.1996L20.1543 41.5436L20.784 40.9098L19.8457 36.1374C20.6044 35.9871 21.3261 35.6872 21.9692 35.255L24.6482 39.2942H25.5371L22.2778 35.0313C22.3792 34.9517 22.478 34.8688 22.5741 34.7828L26.4136 39.1823H27.5001V38.0886L23.1297 34.2359L23.3766 33.9376L27.6112 37.2062V36.3114L23.5988 33.6145C24.0186 32.9807 24.3272 32.2474 24.4753 31.4769L29.2038 32.4214L29.8334 31.8L24.5371 31.0916C24.5618 30.9673 24.5741 30.8431 24.5741 30.7063L30.3766 31.0792L31.142 30.3211L30.3766 29.5505L24.5741 29.9234L24.5371 29.5505L29.8334 28.8421L29.2161 28.2207L24.4753 29.1528C24.326 28.3891 24.0281 27.6626 23.5988 27.0152L27.6112 24.3183V23.4359L23.3766 26.7045C23.2975 26.6024 23.2152 26.5029 23.1297 26.4062L27.5001 22.5535V21.4474H26.4136L22.5865 25.8594C22.4863 25.7731 22.3834 25.6902 22.2778 25.6108L25.5371 21.348H24.6482L21.9692 25.3747C21.3395 24.9521 20.6111 24.6414 19.8457 24.4923L20.784 19.7323L20.1667 19.1109L19.463 24.4302L19.0803 24.3929L19.4506 18.5517L18.6852 17.7811Z" fill="#FCD116"/>
</g>
<defs>
<clipPath id="clip0_568_157">
<rect x="-0.00634766" y="0.493896" width="79.0127" height="59.6548" rx="7.7469" fill="white"/>
</clipPath>
</defs>
</svg>
