<svg width="79" height="60" viewBox="0 0 79 60" fill="none" xmlns="http://www.w3.org/2000/svg">
<g clip-path="url(#clip0_568_7533)">
<mask id="mask0_568_7533" style="mask-type:luminance" maskUnits="userSpaceOnUse" x="-1" y="0" width="81" height="60">
<path d="M-0.00585938 0.493896H79.0041V59.3641H-0.00585938V0.493896Z" fill="white"/>
</mask>
<g mask="url(#mask0_568_7533)">
<path fill-rule="evenodd" clip-rule="evenodd" d="M-2.47485 0.493896H86.4114V59.3641H-2.47485V0.493896Z" fill="white"/>
<path fill-rule="evenodd" clip-rule="evenodd" d="M-2.47485 0.493896H86.4114V29.929H-2.47485V0.493896Z" fill="#DF0000"/>
<path fill-rule="evenodd" clip-rule="evenodd" d="M18.0183 5.4242C15.6799 5.92346 13.5855 7.20678 12.0869 9.05872C10.5882 10.9107 9.77659 13.2184 9.78817 15.5946C9.79975 17.9708 10.6339 20.2706 12.1505 22.1081C13.6671 23.9455 15.7739 25.2086 18.1171 25.6854C16.7747 26.0712 15.3689 26.1901 13.9802 26.035C12.5915 25.88 11.2473 25.4541 10.0247 24.7818C8.80206 24.1096 7.72504 23.2041 6.8554 22.1174C5.98576 21.0307 5.34061 19.7842 4.95695 18.4492C4.19496 15.7658 4.53342 12.8919 5.89833 10.4557C7.26323 8.01952 9.54354 6.21934 12.2407 5.44873C14.2159 4.88456 16.043 4.87229 18.0306 5.4242H18.0183Z" fill="white"/>
<path fill-rule="evenodd" clip-rule="evenodd" d="M16.4134 13.985L17.0183 15.8247L15.4134 14.6964L13.8332 15.8493L14.4135 13.985L12.8333 12.8444L14.7962 12.8199L15.4134 10.9802L16.0307 12.8199H17.9812L16.4134 13.985ZM18.5738 20.3626L19.1911 22.2146L17.5862 21.0863L15.9937 22.2269L16.5862 20.3749L15.006 19.222L16.9689 19.2098L17.5739 17.3578L18.1911 19.1975H20.1664L18.5738 20.3626ZM25.7958 20.3136L26.4007 22.1778L24.7959 21.0372L23.2157 22.1778L23.7959 20.3258L22.2157 19.1852L24.1786 19.1607L24.7959 17.321L25.4131 19.1607H27.3637L25.7958 20.3136ZM27.9439 13.985L28.5488 15.837L26.9439 14.7086L25.3637 15.8493L25.9563 13.9973L24.3638 12.8444L26.339 12.8322L26.9316 10.9802L27.5489 12.8199H29.5241L27.9439 13.985ZM22.228 9.77827L22.8453 11.6425L21.2404 10.5019L19.6479 11.6548L20.2404 9.79054L18.6602 8.63766L20.6108 8.6254L21.2281 6.77344L21.8453 8.61313H23.8206L22.228 9.77827Z" fill="white"/>
</g>
</g>
<defs>
<clipPath id="clip0_568_7533">
<rect x="-0.00585938" y="0.493896" width="79.01" height="58.8702" rx="10" fill="white"/>
</clipPath>
</defs>
</svg>
