<svg width="56" height="56" viewBox="0 0 56 56" fill="none" xmlns="http://www.w3.org/2000/svg">
<rect x="1" y="1" width="53.6" height="53.6" rx="26.8" fill="url(#paint0_linear_154_3417)"/>
<rect x="1" y="1" width="53.6" height="53.6" rx="26.8" stroke="#DABB7B" stroke-width="2"/>
<path d="M21.8 20.6C21.8 17.9525 23.9525 15.8 26.6 15.8H29C31.6475 15.8 33.8 17.9525 33.8 20.6V20.87C33.8 22.505 32.9675 24.0275 31.595 24.905L28.43 26.9375C26.54 28.1525 25.4 30.245 25.4 32.4875V32.6C25.4 33.9275 26.4725 35 27.8 35C29.1275 35 30.2 33.9275 30.2 32.6V32.495C30.2 31.88 30.515 31.31 31.025 30.98L34.19 28.9475C36.935 27.1775 38.6 24.14 38.6 20.87V20.6C38.6 15.2975 34.3025 11 29 11H26.6C21.2975 11 17 15.2975 17 20.6C17 21.9275 18.0725 23 19.4 23C20.7275 23 21.8 21.9275 21.8 20.6ZM27.8 44.6C28.5956 44.6 29.3587 44.2839 29.9213 43.7213C30.4839 43.1587 30.8 42.3956 30.8 41.6C30.8 40.8043 30.4839 40.0413 29.9213 39.4787C29.3587 38.9161 28.5956 38.6 27.8 38.6C27.0043 38.6 26.2413 38.9161 25.6787 39.4787C25.1161 40.0413 24.8 40.8043 24.8 41.6C24.8 42.3956 25.1161 43.1587 25.6787 43.7213C26.2413 44.2839 27.0043 44.6 27.8 44.6Z" fill="url(#paint1_linear_154_3417)"/>
<defs>
<linearGradient id="paint0_linear_154_3417" x1="8.80675" y1="2" x2="53.6" y2="41.891" gradientUnits="userSpaceOnUse">
<stop stop-color="white"/>
<stop offset="0.906839" stop-color="white"/>
</linearGradient>
<linearGradient id="paint1_linear_154_3417" x1="8.17099" y1="5.65261" x2="45.0452" y2="44.6" gradientUnits="userSpaceOnUse">
<stop stop-color="#DABB7B"/>
<stop offset="1" stop-color="#8E7242"/>
</linearGradient>
</defs>
</svg>
